<?xml version="1.0" encoding="UTF-8"?>
<svg xmlns="http://www.w3.org/2000/svg" viewBox="0 0 2160 300" width="2160" height="300">
<g stroke="#333" stroke-width="1.5" fill="none">
  <path d="M 324.00 100.00 L 329.06 100.84 L 334.13 101.68 L 339.19 102.52 L 344.25 103.35 L 349.32 104.17 L 354.38 105.00 L 359.44 105.82 L 364.51 106.63 L 369.57 107.45 L 374.63 108.26 L 379.70 109.06 L 384.76 109.86 L 389.82 110.66 L 394.89 111.45 L 399.95 112.24 L 405.01 113.02 L 410.08 113.80 L 415.14 114.58 L 420.20 115.35 L 425.27 116.12 L 430.33 116.88 L 435.39 117.64 L 440.46 118.40 L 445.52 119.15 L 450.58 119.89 L 455.65 120.63 L 460.71 121.37 L 465.77 122.10 L 470.84 122.83 L 475.90 123.55 L 480.96 124.27 L 486.03 124.98 L 491.09 125.69 L 496.15 126.39 L 501.22 127.09 L 506.28 127.78 L 511.34 128.47 L 516.41 129.15 L 521.47 129.82 L 526.53 130.49 L 531.59 131.16 L 536.66 131.81 L 541.72 132.47 L 546.78 133.11 L 551.85 133.75 L 556.91 134.39 L 561.97 135.01 L 567.04 135.64 L 572.10 136.25 L 577.16 136.86 L 582.23 137.46 L 587.29 138.05 L 592.35 138.64 L 597.42 139.22 L 602.48 139.79 L 607.54 140.35 L 612.61 140.91 L 617.67 141.45 L 622.73 141.99 L 627.80 142.52 L 632.86 143.04 L 637.92 143.55 L 642.99 144.05 L 648.05 144.54 L 653.11 145.02 L 658.18 145.49 L 663.24 145.95 L 668.30 146.39 L 673.37 146.82 L 678.43 147.24 L 683.49 147.64 L 688.56 148.02 L 693.62 148.39 L 698.68 148.74 L 703.75 149.06 L 708.81 149.36 L 713.87 149.63 L 718.94 149.85 L 724.00 150.00 L 724.00 100.00 L 744.51 100.00 L 765.03 100.00 L 785.54 100.00 L 806.05 100.00 L 826.56 100.00 L 847.08 100.00 L 867.59 100.00 L 888.10 100.00 L 908.62 100.00 L 929.13 100.00 L 949.64 100.00 L 970.15 100.00 L 990.67 100.00 L 1011.18 100.00 L 1031.69 100.00 L 1052.21 100.00 L 1072.72 100.00 L 1093.23 100.00 L 1113.74 100.00 L 1134.26 100.00 L 1154.77 100.00 L 1175.28 100.00 L 1195.79 100.00 L 1216.31 100.00 L 1236.82 100.00 L 1257.33 100.00 L 1277.85 100.00 L 1298.36 100.00 L 1318.87 100.00 L 1339.38 100.00 L 1359.90 100.00 L 1380.41 100.00 L 1400.92 100.00 L 1421.44 100.00 L 1441.95 100.00 L 1462.46 100.00 L 1482.97 100.00 L 1503.49 100.00 L 1524.00 100.00 L 1524.00 100.00 L 1544.69 100.00 L 1565.38 100.00 L 1586.07 100.00 L 1606.76 100.00 L 1627.45 100.00 L 1648.14 100.00 L 1668.83 100.00 L 1689.52 100.00 L 1710.21 100.00 L 1730.90 100.00 L 1751.59 100.00 L 1772.28 100.00 L 1792.97 100.00 L 1813.66 100.00 L 1834.34 100.00 L 1855.03 100.00 L 1875.72 100.00 L 1896.41 100.00 L 1917.10 100.00 L 1937.79 100.00 L 1958.48 100.00 L 1979.17 100.00 L 1999.86 100.00 L 2020.55 100.00 L 2041.24 100.00 L 2061.93 100.00 L 2082.62 100.00 L 2103.31 100.00 L 2124.00 100.00"/>
  <path d="M 324.00 200.00 L 329.06 199.16 L 334.13 198.32 L 339.19 197.48 L 344.25 196.65 L 349.32 195.83 L 354.38 195.00 L 359.44 194.18 L 364.51 193.37 L 369.57 192.55 L 374.63 191.74 L 379.70 190.94 L 384.76 190.14 L 389.82 189.34 L 394.89 188.55 L 399.95 187.76 L 405.01 186.98 L 410.08 186.20 L 415.14 185.42 L 420.20 184.65 L 425.27 183.88 L 430.33 183.12 L 435.39 182.36 L 440.46 181.60 L 445.52 180.85 L 450.58 180.11 L 455.65 179.37 L 460.71 178.63 L 465.77 177.90 L 470.84 177.17 L 475.90 176.45 L 480.96 175.73 L 486.03 175.02 L 491.09 174.31 L 496.15 173.61 L 501.22 172.91 L 506.28 172.22 L 511.34 171.53 L 516.41 170.85 L 521.47 170.18 L 526.53 169.51 L 531.59 168.84 L 536.66 168.19 L 541.72 167.53 L 546.78 166.89 L 551.85 166.25 L 556.91 165.61 L 561.97 164.99 L 567.04 164.36 L 572.10 163.75 L 577.16 163.14 L 582.23 162.54 L 587.29 161.95 L 592.35 161.36 L 597.42 160.78 L 602.48 160.21 L 607.54 159.65 L 612.61 159.09 L 617.67 158.55 L 622.73 158.01 L 627.80 157.48 L 632.86 156.96 L 637.92 156.45 L 642.99 155.95 L 648.05 155.46 L 653.11 154.98 L 658.18 154.51 L 663.24 154.05 L 668.30 153.61 L 673.37 153.18 L 678.43 152.76 L 683.49 152.36 L 688.56 151.98 L 693.62 151.61 L 698.68 151.26 L 703.75 150.94 L 708.81 150.64 L 713.87 150.37 L 718.94 150.15 L 724.00 150.00 L 724.00 200.00 L 744.51 200.00 L 765.03 200.00 L 785.54 200.00 L 806.05 200.00 L 826.56 200.00 L 847.08 200.00 L 867.59 200.00 L 888.10 200.00 L 908.62 200.00 L 929.13 200.00 L 949.64 200.00 L 970.15 200.00 L 990.67 200.00 L 1011.18 200.00 L 1031.69 200.00 L 1052.21 200.00 L 1072.72 200.00 L 1093.23 200.00 L 1113.74 200.00 L 1134.26 200.00 L 1154.77 200.00 L 1175.28 200.00 L 1195.79 200.00 L 1216.31 200.00 L 1236.82 200.00 L 1257.33 200.00 L 1277.85 200.00 L 1298.36 200.00 L 1318.87 200.00 L 1339.38 200.00 L 1359.90 200.00 L 1380.41 200.00 L 1400.92 200.00 L 1421.44 200.00 L 1441.95 200.00 L 1462.46 200.00 L 1482.97 200.00 L 1503.49 200.00 L 1524.00 200.00 L 1524.00 200.00 L 1544.69 200.00 L 1565.38 200.00 L 1586.07 200.00 L 1606.76 200.00 L 1627.45 200.00 L 1648.14 200.00 L 1668.83 200.00 L 1689.52 200.00 L 1710.21 200.00 L 1730.90 200.00 L 1751.59 200.00 L 1772.28 200.00 L 1792.97 200.00 L 1813.66 200.00 L 1834.34 200.00 L 1855.03 200.00 L 1875.72 200.00 L 1896.41 200.00 L 1917.10 200.00 L 1937.79 200.00 L 1958.48 200.00 L 1979.17 200.00 L 1999.86 200.00 L 2020.55 200.00 L 2041.24 200.00 L 2061.93 200.00 L 2082.62 200.00 L 2103.31 200.00 L 2124.00 200.00"/>
  <g fill="#ccc" stroke="#555">
    <path d="M 2084.00 100.00 L 2244.00 100.00 L 2200.02 60.00 L 2140.02 60.00 Z"/>
    <path d="M 2084.00 100.00 L 2244.00 100.00 L 2200.02 60.00 L 2140.02 60.00 Z"/>
    <path d="M 2084.00 100.00 L 2244.00 100.00 L 2200.02 60.00 L 2140.02 60.00 Z"/>
    <path d="M 2084.00 100.00 L 2244.00 100.00 L 2200.02 60.00 L 2140.02 60.00 Z"/>
  </g>
</g>
</svg>